<svg width="94" height="25" viewBox="0 0 94 25" fill="none" xmlns="http://www.w3.org/2000/svg">
<path d="M43.26 19V6.04H44.718L49.614 16.363L54.483 6.04H55.959V18.991H54.438V9.559L50.037 19H49.182L44.781 9.559V19H43.26ZM62.6947 19.27C61.7407 19.27 60.9067 19.06 60.1927 18.64C59.4847 18.214 58.9327 17.623 58.5367 16.867C58.1407 16.105 57.9427 15.217 57.9427 14.203C57.9427 13.141 58.1377 12.223 58.5277 11.449C58.9177 10.669 59.4607 10.069 60.1567 9.649C60.8587 9.223 61.6807 9.01 62.6227 9.01C63.6007 9.01 64.4317 9.235 65.1157 9.685C65.8057 10.135 66.3217 10.777 66.6637 11.611C67.0117 12.445 67.1617 13.438 67.1137 14.59H65.4937V14.014C65.4757 12.82 65.2327 11.929 64.7647 11.341C64.2967 10.747 63.6007 10.45 62.6767 10.45C61.6867 10.45 60.9337 10.768 60.4177 11.404C59.9017 12.04 59.6437 12.952 59.6437 14.14C59.6437 15.286 59.9017 16.174 60.4177 16.804C60.9337 17.434 61.6687 17.749 62.6227 17.749C63.2647 17.749 63.8227 17.602 64.2967 17.308C64.7707 17.014 65.1427 16.591 65.4127 16.039L66.9517 16.57C66.5737 17.428 66.0037 18.094 65.2417 18.568C64.4857 19.036 63.6367 19.27 62.6947 19.27ZM59.1037 14.59V13.303H66.2857V14.59H59.1037ZM69.1084 19V9.28H70.7104V13.375H75.8224V9.28H77.4244V19H75.8224V14.896H70.7104V19H69.1084ZM87.8745 19.27C87.0465 19.27 86.3145 19.093 85.6785 18.739C85.0485 18.385 84.5415 17.884 84.1575 17.236C83.7735 16.588 83.5335 15.823 83.4375 14.941H81.5385V19H79.9365V9.28H81.5385V13.339H83.4285C83.5245 12.439 83.7675 11.665 84.1575 11.017C84.5475 10.369 85.0605 9.874 85.6965 9.532C86.3325 9.184 87.0645 9.01 87.8925 9.01C88.8585 9.01 89.6895 9.229 90.3855 9.667C91.0875 10.105 91.6245 10.708 91.9965 11.476C92.3745 12.244 92.5635 13.126 92.5635 14.122C92.5635 15.136 92.3715 16.03 91.9875 16.804C91.6095 17.578 91.0695 18.184 90.3675 18.622C89.6715 19.054 88.8405 19.27 87.8745 19.27ZM87.8475 17.749C88.8675 17.749 89.6235 17.416 90.1155 16.75C90.6135 16.078 90.8625 15.205 90.8625 14.131C90.8625 13.027 90.6105 12.151 90.1065 11.503C89.6085 10.855 88.8585 10.531 87.8565 10.531C86.8905 10.531 86.1555 10.852 85.6515 11.494C85.1475 12.136 84.8955 13.012 84.8955 14.122C84.8955 15.22 85.1445 16.099 85.6425 16.759C86.1465 17.419 86.8815 17.749 87.8475 17.749Z" fill="white"/>
<line x1="32" y1="8.5" y2="8.5" stroke="white"/>
<line x1="32" y1="17.5" y2="17.5" stroke="white"/>
</svg>
